<svg width="61" height="61" xmlns="http://www.w3.org/2000/svg" xmlns:xlink="http://www.w3.org/1999/xlink" overflow="hidden"><defs><clipPath id="clip0"><rect x="669" y="163" width="61" height="61"/></clipPath></defs><g clip-path="url(#clip0)" transform="translate(-669 -163)"><path d="M699.539 212.274 689.535 212.274 689.535 204.332 699.539 204.332 699.539 212.274ZM709.543 212.274 699.539 212.274 699.539 204.332 709.543 204.332 709.543 212.274ZM704.541 204.332 694.537 204.332 694.537 196.389 704.541 196.389 704.541 204.332ZM724.146 190.279 701.533 174.944M679.531 187.715 679.531 213.614M719.547 187.457 719.547 213.616M684.533 213.616 684.533 191.428 714.545 191.428 714.545 213.616" stroke="#167D86" stroke-width="2.03333" stroke-linecap="round" stroke-linejoin="round" fill="none"/><path d="M674.854 190.184 699.602 173.384" stroke="#E30613" stroke-width="2.03333" stroke-linecap="round" stroke-linejoin="round" fill="none"/></g></svg>
