<svg width="61" height="61" xmlns="http://www.w3.org/2000/svg" xmlns:xlink="http://www.w3.org/1999/xlink" overflow="hidden"><defs><clipPath id="clip0"><rect x="669" y="163" width="61" height="61"/></clipPath></defs><g clip-path="url(#clip0)" transform="translate(-669 -163)"><path d="M699.538 212.273 689.534 212.273 689.534 204.332 699.538 204.332 699.538 212.273ZM709.542 212.273 699.538 212.273 699.538 204.332 709.542 204.332 709.542 212.273ZM704.54 204.332 694.536 204.332 694.536 196.39 704.54 196.39 704.54 204.332ZM724.146 190.279 701.533 174.944M679.53 187.716 679.53 213.615M719.546 187.457 719.546 213.615M684.532 213.615 684.532 191.427 714.544 191.427 714.544 213.615" stroke="#000000" stroke-width="2.03333" stroke-linecap="round" stroke-linejoin="round" fill="none"/><path d="M674.854 190.183 699.601 173.385" stroke="#E30613" stroke-width="2.03333" stroke-linecap="round" stroke-linejoin="round" fill="none"/></g></svg>
